<?xml version="1.0" encoding="UTF-8" standalone="no"?>
<svg
   xmlns:dc="http://purl.org/dc/elements/1.1/"
   xmlns:cc="http://creativecommons.org/ns#"
   xmlns:rdf="http://www.w3.org/1999/02/22-rdf-syntax-ns#"
   xmlns:svg="http://www.w3.org/2000/svg"
   xmlns="http://www.w3.org/2000/svg"
   version="1.1"
   id="svg4135"
   viewBox="0 0 64 64"
   height="64"
   width="64">
  <defs
     id="defs4137" />
  <metadata
     id="metadata4140">
    <rdf:RDF>
      <cc:Work
         rdf:about="">
        <dc:format>image/svg+xml</dc:format>
        <dc:type
           rdf:resource="http://purl.org/dc/dcmitype/StillImage" />
        <dc:title></dc:title>
      </cc:Work>
    </rdf:RDF>
  </metadata>
  <g
     style="display:inline"
     id="layer2">
    <path
       d="m 29.950388,16.476273 q 1.674805,1.777343 2.529297,3.554687 0.615234,1.230469 2.016601,6.459961 l 3.007813,-4.511719 q 1.196289,-1.640625 2.905273,-3.110351 1.708985,-1.503907 3.007813,-2.050782 0.820312,-0.341796 1.811523,-0.341796 1.469727,0 2.324219,0.786132 0.888672,0.786133 0.888672,1.914063 0,1.298828 -0.512695,1.777344 -0.957032,0.854492 -2.1875,0.854492 -0.717774,0 -1.538086,-0.307617 -1.606446,-0.546875 -2.153321,-0.546875 -0.820312,0 -1.948242,0.957031 -2.11914,1.777344 -5.058594,6.870117 l 2.802735,11.757813 q 0.649414,2.700195 1.09375,3.24707 0.444336,0.512695 0.888672,0.512695 0.717773,0 1.674804,-0.786133 1.879883,-1.572265 3.212891,-4.101562 l 1.196289,0.615234 q -2.15332,4.033203 -5.46875,6.699219 -1.879883,1.503906 -3.178711,1.503906 -1.914062,0 -3.041992,-2.15332 -0.717774,-1.333008 -2.973633,-11.484375 -5.332031,9.262695 -8.544922,11.928711 -2.084961,1.708984 -4.033203,1.708984 -1.367187,0 -2.495117,-0.991211 -0.820313,-0.751953 -0.820313,-2.016601 0,-1.12793 0.751954,-1.879883 0.751953,-0.751953 1.845703,-0.751953 1.09375,0 2.324218,1.09375 0.888672,0.786133 1.367188,0.786133 0.410156,0 1.05957,-0.546875 1.606446,-1.298828 4.375,-5.605469 2.768555,-4.306641 3.623047,-6.220703 -2.119141,-8.305664 -2.290039,-8.78418 -0.786133,-2.22168 -2.050781,-3.144531 -1.264649,-0.922852 -3.725586,-0.922852 -0.786133,0 -1.811524,0.06836 l 0,-1.230469 9.125977,-1.606445 z"
       style="font-style:italic;font-variant:normal;font-weight:normal;font-stretch:normal;font-size:70px;line-height:125%;font-family:'Times New Roman';-inkscape-font-specification:'Times New Roman,  Italic';letter-spacing:0px;word-spacing:0px;fill:#000000;fill-opacity:1;stroke:none;stroke-width:1px;stroke-linecap:butt;stroke-linejoin:miter;stroke-opacity:1"
       id="path4700" />
  </g>
</svg>
