<?xml version="1.0" encoding="UTF-8" standalone="no"?>
<svg
   xmlns:dc="http://purl.org/dc/elements/1.1/"
   xmlns:cc="http://creativecommons.org/ns#"
   xmlns:rdf="http://www.w3.org/1999/02/22-rdf-syntax-ns#"
   xmlns:svg="http://www.w3.org/2000/svg"
   xmlns="http://www.w3.org/2000/svg"
   width="64"
   height="64"
   viewBox="0 0 64 64"
   id="svg4151"
   version="1.1">
  <defs
     id="defs4153" />
  <metadata
     id="metadata4156">
    <rdf:RDF>
      <cc:Work
         rdf:about="">
        <dc:format>image/svg+xml</dc:format>
        <dc:type
           rdf:resource="http://purl.org/dc/dcmitype/StillImage" />
        <dc:title></dc:title>
      </cc:Work>
    </rdf:RDF>
  </metadata>
  <g
     id="layer1"
     transform="translate(2,-988.36216)">
    <path
       id="path4176"
       style="font-style:italic;font-variant:normal;font-weight:normal;font-stretch:normal;font-size:70px;line-height:125%;font-family:'Times New Roman';-inkscape-font-specification:'Times New Roman, Italic';letter-spacing:0px;word-spacing:0px;fill:#ffffff;fill-opacity:1;stroke:none;stroke-width:1px;stroke-linecap:butt;stroke-linejoin:miter;stroke-opacity:1"
       d="m 30.697878,999.58569 -5.297851,18.32031 4.34082,0 q 4.648438,0 6.733399,-1.4014 2.08496,-1.4355 3.588867,-5.2636 l 1.264648,0 -4.750976,16.8164 -1.367188,0 q 0.615234,-2.1192 0.615234,-3.6231 0,-1.4697 -0.615234,-2.3584 -0.581055,-0.8886 -1.640625,-1.2988 -1.025391,-0.4443 -4.375,-0.4443 l -4.40918,0 -4.477539,15.3466 q -0.649414,2.2217 -0.649414,3.3838 0,0.8887 0.854492,1.5723 0.581055,0.4785 2.905274,0.4785 l 4.101562,0 q 6.665039,0 10.664063,-2.3584 4.033203,-2.3584 7.211914,-8.2031 l 1.264648,0 -4.375,12.8857 -35.8203121,0 0.444336,-1.2646 q 2.6660161,-0.068 3.5888671,-0.4785 1.367188,-0.6153 1.982422,-1.5723 0.922851,-1.4014 2.1875,-5.8789 l 8.134766,-27.959 q 0.957031,-3.3838 0.957031,-5.1611 0,-1.29885 -0.922852,-2.01662 -0.888672,-0.75196 -3.520508,-0.75196 l -0.717773,0 0.410156,-1.26464 33.291016,0 -2.871094,11.17672 -1.264648,0 q 0.239257,-1.5722 0.239257,-2.6318 0,-1.8115 -0.888671,-3.042 -1.16211,-1.5723 -3.383789,-2.3926 -1.640625,-0.61521 -7.553711,-0.61521 l -5.878907,0 z" />
  </g>
</svg>
