<?xml version="1.0" encoding="UTF-8" standalone="no"?>
<svg
   xmlns:dc="http://purl.org/dc/elements/1.1/"
   xmlns:cc="http://creativecommons.org/ns#"
   xmlns:rdf="http://www.w3.org/1999/02/22-rdf-syntax-ns#"
   xmlns:svg="http://www.w3.org/2000/svg"
   xmlns="http://www.w3.org/2000/svg"
   version="1.1"
   id="svg4703"
   viewBox="0 0 64 64"
   height="64"
   width="64">
  <defs
     id="defs4705" />
  <metadata
     id="metadata4708">
    <rdf:RDF>
      <cc:Work
         rdf:about="">
        <dc:format>image/svg+xml</dc:format>
        <dc:type
           rdf:resource="http://purl.org/dc/dcmitype/StillImage" />
        <dc:title></dc:title>
      </cc:Work>
    </rdf:RDF>
  </metadata>
  <g
     id="layer3">
    <path
       d="m 15.533757,17.873093 9.87793,-2.119141 q 1.05957,2.529297 1.708984,5.161133 0.922852,3.862305 1.503907,9.160156 0.273437,2.666016 0.751953,11.279297 4.272461,-4.716797 5.092773,-5.844727 4.511719,-6.118164 5.195313,-7.177734 1.127929,-1.811523 1.572265,-3.178711 0.375977,-1.025391 0.375977,-1.948242 0,-0.888672 -1.606446,-2.050781 -1.572265,-1.16211 -1.572265,-2.597657 0,-1.09375 0.854492,-1.948242 0.888672,-0.854492 2.084961,-0.854492 1.435547,0 2.529297,1.196289 1.09375,1.162109 1.09375,2.905274 0,1.743164 -0.546875,3.349609 -0.888672,2.597656 -3.31543,6.357422 -2.426758,3.725586 -7.827148,10.014648 -0.683594,0.786133 -7.587891,7.929688 l -1.264648,0 Q 23.634343,25.87114 21.036687,20.504929 q -0.854492,-1.743164 -2.836914,-1.743164 -0.854492,0 -2.426758,0.307617 l -0.239258,-1.196289 z"
       style="font-style:italic;font-variant:normal;font-weight:normal;font-stretch:normal;font-size:70px;line-height:125%;font-family:'Times New Roman';-inkscape-font-specification:'Times New Roman, Italic';letter-spacing:0px;word-spacing:0px;fill:#ffffff;fill-opacity:1;stroke:none;stroke-width:1px;stroke-linecap:butt;stroke-linejoin:miter;stroke-opacity:1"
       id="path5268" />
  </g>
</svg>
